<?xml version="1.0" encoding="UTF-8"?>
<svg id="Layer_2" data-name="Layer 2" xmlns="http://www.w3.org/2000/svg" viewBox="0 0 76.58 73.72">
  <g id="Layer_1-2" data-name="Layer 1">
    <g>
      <path d="m70.83,48.09c2.54-13.18-3.66-27.05-15.24-33.88-.54-.32-1.23-.14-1.54.4-.32.54-.14,1.23.4,1.54,10.67,6.3,16.42,19,14.24,31.14-.81-.2-1.66-.32-2.53-.32-5.75,0-10.43,4.68-10.43,10.43s4.68,10.43,10.43,10.43,10.43-4.68,10.43-10.43c0-4.07-2.35-7.59-5.75-9.31Zm-4.68,17.49c-4.51,0-8.18-3.67-8.18-8.18s3.67-8.18,8.18-8.18,8.18,3.67,8.18,8.18-3.67,8.18-8.18,8.18Z"/>
      <path d="m7.05,41.4s.02,0,.04,0c.61,0,1.11-.48,1.13-1.09.38-12.3,8.71-23.47,20.32-27.43,1.1,4.58,5.22,7.99,10.13,7.99,5.75,0,10.43-4.68,10.43-10.43S44.42,0,38.67,0s-10.43,4.68-10.43,10.43c0,.05,0,.1,0,.16C15.53,14.71,6.38,26.86,5.96,40.24c-.02.62.47,1.14,1.09,1.16ZM38.67,2.25c4.51,0,8.18,3.67,8.18,8.18s-3.67,8.18-8.18,8.18-8.18-3.67-8.18-8.18,3.67-8.18,8.18-8.18Z"/>
      <path d="m52.12,68.03c-10.8,5.75-24.57,4.14-33.78-3.85,1.57-1.83,2.52-4.19,2.52-6.78,0-5.75-4.68-10.43-10.43-10.43S0,51.65,0,57.41s4.68,10.43,10.43,10.43c2.34,0,4.5-.79,6.25-2.1,5.95,5.24,13.7,7.98,21.47,7.98,5.17,0,10.36-1.21,15.02-3.69.55-.29.76-.98.47-1.52-.29-.55-.98-.76-1.52-.47Zm-41.69-2.45c-4.51,0-8.18-3.67-8.18-8.18s3.67-8.18,8.18-8.18,8.18,3.67,8.18,8.18-3.67,8.18-8.18,8.18Z"/>
    </g>
  </g>
</svg>